<svg xmlns="http://www.w3.org/2000/svg" viewBox="0 0 64 64" width="64" height="64">
  <rect x="3" y="3" width="58" height="58" rx="17" fill="#fff8e7" stroke="#263449" stroke-width="2.5"/>
  <path d="M15 44V22l17 15 17-15v22" fill="none" stroke="#ef5b4f" stroke-width="7" stroke-linecap="round" stroke-linejoin="round"/>
  <path d="M45.5 11.5v12.2c-1.5-1-4.1-.9-5.7.3-2 1.5-2.4 3.9-.8 5.1 1.6 1.2 4.4.7 6.2-.9 1.3-1.2 1.7-2.5 1.7-4.4v-7.1l7.2-1.8v6.8c-1.5-.9-4-.7-5.5.5-1.9 1.5-2.2 3.8-.7 5 1.6 1.2 4.3.7 6.1-.8 1.2-1 1.6-2.4 1.6-4.1V9.1z" fill="#f5bd3f" stroke="#263449" stroke-width="1.35" stroke-linejoin="round"/>
  <path d="M15 51h24" fill="none" stroke="#263449" stroke-width="2.5" stroke-linecap="round" opacity=".82"/>
  <circle cx="47" cy="48" r="3" fill="#7dbb9b"/>
</svg>
