<svg xmlns="http://www.w3.org/2000/svg" viewBox="0 0 960 540">
  <defs>
    <linearGradient id="sky" x1="0" y1="0" x2="1" y2="1"><stop stop-color="#fffaf2"/><stop offset=".52" stop-color="#ffd9e2"/><stop offset="1" stop-color="#dff3ef"/></linearGradient>
    <linearGradient id="grass" x1="0" y1="0" x2="0" y2="1"><stop stop-color="#cce9b9"/><stop offset="1" stop-color="#91c98b"/></linearGradient>
    <filter id="shadow"><feDropShadow dx="0" dy="12" stdDeviation="10" flood-color="#9d5e70" flood-opacity=".18"/></filter>
  </defs>
  <rect width="960" height="540" rx="34" fill="url(#sky)"/>
  <circle cx="790" cy="90" r="56" fill="#fff4a8" opacity=".78"/>
  <path d="M0 378Q155 315 330 380T645 376T960 340V540H0Z" fill="url(#grass)"/>
  <g fill="#fff" opacity=".65"><ellipse cx="150" cy="98" rx="72" ry="30"/><ellipse cx="215" cy="105" rx="52" ry="23"/><ellipse cx="702" cy="165" rx="88" ry="32"/><ellipse cx="775" cy="172" rx="52" ry="23"/></g>
  <g transform="translate(660 276)" filter="url(#shadow)">
    <path d="M-92-62-66-112-32-80C-12-89 17-89 38-80L72-112 98-58V47C98 102 54 135 2 135S-94 102-94 47Z" fill="#fffdf9" stroke="#403841" stroke-width="6"/>
    <ellipse cx="-36" cy="7" rx="8" ry="13" fill="#332d34"/><ellipse cx="37" cy="7" rx="8" ry="13" fill="#332d34"/>
    <ellipse cx="1" cy="36" rx="12" ry="8" fill="#f1c53e"/>
    <path d="M-57 27-111 17M-57 44-115 48M58 27 111 17M58 44 115 48" stroke="#403841" stroke-width="5" stroke-linecap="round"/>
    <g transform="translate(64 -78) rotate(-9)"><ellipse cx="-22" rx="35" ry="24" fill="#e9405a"/><ellipse cx="22" rx="35" ry="24" fill="#e9405a"/><circle r="17" fill="#ff697b"/></g>
    <path d="M-71 91Q0 145 73 90L60 166H-57Z" fill="#e9425b"/><circle cx="1" cy="119" r="9" fill="#fff9dc"/>
  </g>
  <g transform="translate(170 308)" filter="url(#shadow)">
    <ellipse cx="0" cy="94" rx="122" ry="28" fill="#88734f" opacity=".18"/>
    <ellipse cx="0" cy="60" rx="102" ry="44" fill="#fff9eb" stroke="#d9a06c" stroke-width="6"/>
    <path d="M-72 30Q0-28 74 30" fill="#f5c9aa" stroke="#d9a06c" stroke-width="6"/>
    <circle cx="-37" cy="26" r="17" fill="#ee5571"/><circle cx="1" cy="13" r="18" fill="#ee5571"/><circle cx="41" cy="27" r="17" fill="#ee5571"/>
    <path d="M-64 50H64" stroke="#fff" stroke-width="12" stroke-linecap="round"/>
  </g>
  <g fill="#fff7f9" stroke="#e94c67" stroke-width="3"><path d="M86 410c0-18 28-18 28 0 0-18 28-18 28 0 0 19-28 35-28 35S86 429 86 410Z"/><path d="M318 423c0-14 22-14 22 0 0-14 22-14 22 0 0 15-22 28-22 28s-22-13-22-28Z"/></g>
  <text x="58" y="75" fill="#a63c53" font-family="Arial,sans-serif" font-size="22" font-weight="700" letter-spacing="6">SWEET BOW GARDEN</text>
  <text x="59" y="106" fill="#885c68" font-family="Arial,sans-serif" font-size="16">strawberry tea · soft melody · lovely afternoon</text>
</svg>
