<svg xmlns="http://www.w3.org/2000/svg" viewBox="0 0 960 540">
  <defs>
    <linearGradient id="bg" x1="0" y1="0" x2="1" y2="1"><stop stop-color="#17152f"/><stop offset=".5" stop-color="#3c2b72"/><stop offset="1" stop-color="#7d3e86"/></linearGradient>
    <filter id="shadow"><feDropShadow dx="0" dy="12" stdDeviation="12" flood-color="#0d0920" flood-opacity=".48"/></filter>
  </defs>
  <rect width="960" height="540" rx="34" fill="url(#bg)"/>
  <path d="M0 425Q160 359 315 425T635 419T960 378V540H0Z" fill="#151426" opacity=".75"/>
  <path d="M800 70a82 82 0 1 0 77 110 90 90 0 1 1-77-110Z" fill="#fff0a8" opacity=".9"/>
  <g fill="#f8d9ff"><circle cx="105" cy="86" r="4"/><circle cx="183" cy="163" r="7"/><circle cx="344" cy="72" r="5"/><circle cx="518" cy="130" r="4"/><circle cx="720" cy="220" r="6"/><circle cx="891" cy="282" r="4"/></g>
  <g fill="none" stroke="#ed86c3" stroke-width="5" stroke-linecap="round" opacity=".55"><path d="M65 315Q239 188 423 315T806 298"/><path d="M96 340Q255 233 406 340" stroke-dasharray="4 18"/></g>
  <g transform="translate(520 274) rotate(-7)" filter="url(#shadow)">
    <path d="M-95-44-120-130-58-87C-25-104 24-104 58-87L120-130 95-42V52C95 108 54 142 0 142S-95 108-95 52Z" fill="#292030" stroke="#15111b" stroke-width="7"/>
    <path d="M-74-14C-63-60-32-82 0-82S64-60 75-14V51C75 92 42 117 0 117S-75 92-75 51Z" fill="#fffaf8"/>
    <ellipse cx="-30" cy="18" rx="10" ry="15" fill="#322539"/><ellipse cx="30" cy="18" rx="10" ry="15" fill="#322539"/>
    <path d="M-10 49Q0 59 10 49" fill="none" stroke="#322539" stroke-width="5" stroke-linecap="round"/>
    <g transform="translate(0 -70)"><circle r="26" fill="#ee6ead"/><circle cy="-3" r="9" fill="#fffaf8"/><path d="M-13 10 0 4 13 10 7 20H-7Z" fill="#fffaf8"/></g>
    <path d="M-72 95Q0 147 73 95L61 172H-60Z" fill="#1c1722"/>
  </g>
  <g transform="translate(267 350)" fill="#eee5ff" opacity=".9"><path d="m0-36 10 24 26 2-20 17 7 25L0 18l-23 14 7-25-20-17 26-2Z"/><path transform="translate(-118 -90) scale(.7)" d="m0-36 10 24 26 2-20 17 7 25L0 18l-23 14 7-25-20-17 26-2Z"/></g>
  <text x="58" y="72" fill="#f3a2d5" font-family="Arial,sans-serif" font-size="22" font-weight="700" letter-spacing="6">KUROMI MIDNIGHT FLIGHT</text>
  <text x="59" y="103" fill="#cabbe6" font-family="Arial,sans-serif" font-size="16">moon trail · glitter stars · mischievous rhythm</text>
</svg>
